<svg width="57" height="55" viewBox="0 0 57 55" fill="none" xmlns="http://www.w3.org/2000/svg">
<path id="Vector" d="M28.5 0C24.7573 0 21.0513 0.728968 17.5935 2.14528C14.1357 3.5616 10.9939 5.63752 8.34746 8.25453C3.00267 13.5398 0 20.7082 0 28.1827C0 40.6395 8.1795 51.208 19.494 54.9563C20.919 55.1818 21.375 54.3081 21.375 53.5472C21.375 52.899 21.375 51.1235 21.375 48.7843C13.4805 50.4753 11.799 45.0078 11.799 45.0078C10.488 41.7386 8.6355 40.865 8.6355 40.865C6.042 39.1176 8.835 39.174 8.835 39.174C11.685 39.3713 13.1955 42.0768 13.1955 42.0768C15.675 46.3606 19.8645 45.0924 21.489 44.416C21.7455 42.5841 22.4865 41.3441 23.2845 40.6395C16.9575 39.9349 10.317 37.5112 10.317 26.7736C10.317 23.6453 11.4 21.1371 13.2525 19.1361C12.9675 18.4315 11.97 15.5005 13.5375 11.6958C13.5375 11.6958 15.9315 10.9349 21.375 14.5705C23.6265 13.9505 26.0775 13.6404 28.5 13.6404C30.9225 13.6404 33.3735 13.9505 35.625 14.5705C41.0685 10.9349 43.4625 11.6958 43.4625 11.6958C45.03 15.5005 44.0325 18.4315 43.7475 19.1361C45.6 21.1371 46.683 23.6453 46.683 26.7736C46.683 37.5394 40.014 39.9068 33.6585 40.6113C34.6845 41.485 35.625 43.2041 35.625 45.8251C35.625 49.6016 35.625 52.6454 35.625 53.5472C35.625 54.3081 36.081 55.21 37.5345 54.9563C48.849 51.1799 57 40.6395 57 28.1827C57 24.4817 56.2628 20.817 54.8306 17.3977C53.3983 13.9784 51.299 10.8715 48.6525 8.25453C46.0061 5.63752 42.8643 3.5616 39.4065 2.14528C35.9487 0.728968 32.2427 0 28.5 0Z" fill="white"/>
</svg>
